<svg width="375" height="23" viewBox="0 0 375 23" fill="none" xmlns="http://www.w3.org/2000/svg">
<path d="M149.653 6.545V17H148.288V6.545H149.653ZM156.435 8.63C157.435 8.63 158.245 8.935 158.865 9.545C159.485 10.145 159.795 11.015 159.795 12.155V17H158.445V12.35C158.445 11.53 158.24 10.905 157.83 10.475C157.42 10.035 156.86 9.815 156.15 9.815C155.43 9.815 154.855 10.04 154.425 10.49C154.005 10.94 153.795 11.595 153.795 12.455V17H152.43V8.78H153.795V9.95C154.065 9.53 154.43 9.205 154.89 8.975C155.36 8.745 155.875 8.63 156.435 8.63ZM165.384 17.135C164.754 17.135 164.189 17.03 163.689 16.82C163.189 16.6 162.794 16.3 162.504 15.92C162.214 15.53 162.054 15.085 162.024 14.585H163.434C163.474 14.995 163.664 15.33 164.004 15.59C164.354 15.85 164.809 15.98 165.369 15.98C165.889 15.98 166.299 15.865 166.599 15.635C166.899 15.405 167.049 15.115 167.049 14.765C167.049 14.405 166.889 14.14 166.569 13.97C166.249 13.79 165.754 13.615 165.084 13.445C164.474 13.285 163.974 13.125 163.584 12.965C163.204 12.795 162.874 12.55 162.594 12.23C162.324 11.9 162.189 11.47 162.189 10.94C162.189 10.52 162.314 10.135 162.564 9.785C162.814 9.435 163.169 9.16 163.629 8.96C164.089 8.75 164.614 8.645 165.204 8.645C166.114 8.645 166.849 8.875 167.409 9.335C167.969 9.795 168.269 10.425 168.309 11.225H166.944C166.914 10.795 166.739 10.45 166.419 10.19C166.109 9.93 165.689 9.8 165.159 9.8C164.669 9.8 164.279 9.905 163.989 10.115C163.699 10.325 163.554 10.6 163.554 10.94C163.554 11.21 163.639 11.435 163.809 11.615C163.989 11.785 164.209 11.925 164.469 12.035C164.739 12.135 165.109 12.25 165.579 12.38C166.169 12.54 166.649 12.7 167.019 12.86C167.389 13.01 167.704 13.24 167.964 13.55C168.234 13.86 168.374 14.265 168.384 14.765C168.384 15.215 168.259 15.62 168.009 15.98C167.759 16.34 167.404 16.625 166.944 16.835C166.494 17.035 165.974 17.135 165.384 17.135ZM172.426 9.905V14.75C172.426 15.15 172.511 15.435 172.681 15.605C172.851 15.765 173.146 15.845 173.566 15.845H174.571V17H173.341C172.581 17 172.011 16.825 171.631 16.475C171.251 16.125 171.061 15.55 171.061 14.75V9.905H169.996V8.78H171.061V6.71H172.426V8.78H174.571V9.905H172.426ZM178.04 10.115C178.28 9.645 178.62 9.28 179.06 9.02C179.51 8.76 180.055 8.63 180.695 8.63V10.04H180.335C178.805 10.04 178.04 10.87 178.04 12.53V17H176.675V8.78H178.04V10.115ZM190.011 8.78V17H188.646V15.785C188.386 16.205 188.021 16.535 187.551 16.775C187.091 17.005 186.581 17.12 186.021 17.12C185.381 17.12 184.806 16.99 184.296 16.73C183.786 16.46 183.381 16.06 183.081 15.53C182.791 15 182.646 14.355 182.646 13.595V8.78H183.996V13.415C183.996 14.225 184.201 14.85 184.611 15.29C185.021 15.72 185.581 15.935 186.291 15.935C187.021 15.935 187.596 15.71 188.016 15.26C188.436 14.81 188.646 14.155 188.646 13.295V8.78H190.011ZM192.256 12.875C192.256 12.025 192.426 11.285 192.766 10.655C193.106 10.015 193.576 9.52 194.176 9.17C194.786 8.82 195.481 8.645 196.261 8.645C197.271 8.645 198.101 8.89 198.751 9.38C199.411 9.87 199.846 10.55 200.056 11.42H198.586C198.446 10.92 198.171 10.525 197.761 10.235C197.361 9.945 196.861 9.8 196.261 9.8C195.481 9.8 194.851 10.07 194.371 10.61C193.891 11.14 193.651 11.895 193.651 12.875C193.651 13.865 193.891 14.63 194.371 15.17C194.851 15.71 195.481 15.98 196.261 15.98C196.861 15.98 197.361 15.84 197.761 15.56C198.161 15.28 198.436 14.88 198.586 14.36H200.056C199.836 15.2 199.396 15.875 198.736 16.385C198.076 16.885 197.251 17.135 196.261 17.135C195.481 17.135 194.786 16.96 194.176 16.61C193.576 16.26 193.106 15.765 192.766 15.125C192.426 14.485 192.256 13.735 192.256 12.875ZM203.992 9.905V14.75C203.992 15.15 204.077 15.435 204.247 15.605C204.417 15.765 204.712 15.845 205.132 15.845H206.137V17H204.907C204.147 17 203.577 16.825 203.197 16.475C202.817 16.125 202.627 15.55 202.627 14.75V9.905H201.562V8.78H202.627V6.71H203.992V8.78H206.137V9.905H203.992ZM208.946 7.445C208.686 7.445 208.466 7.355 208.286 7.175C208.106 6.995 208.016 6.775 208.016 6.515C208.016 6.255 208.106 6.035 208.286 5.855C208.466 5.675 208.686 5.585 208.946 5.585C209.196 5.585 209.406 5.675 209.576 5.855C209.756 6.035 209.846 6.255 209.846 6.515C209.846 6.775 209.756 6.995 209.576 7.175C209.406 7.355 209.196 7.445 208.946 7.445ZM209.606 8.78V17H208.241V8.78H209.606ZM215.967 17.135C215.197 17.135 214.497 16.96 213.867 16.61C213.247 16.26 212.757 15.765 212.397 15.125C212.047 14.475 211.872 13.725 211.872 12.875C211.872 12.035 212.052 11.295 212.412 10.655C212.782 10.005 213.282 9.51 213.912 9.17C214.542 8.82 215.247 8.645 216.027 8.645C216.807 8.645 217.512 8.82 218.142 9.17C218.772 9.51 219.267 10 219.627 10.64C219.997 11.28 220.182 12.025 220.182 12.875C220.182 13.725 219.992 14.475 219.612 15.125C219.242 15.765 218.737 16.26 218.097 16.61C217.457 16.96 216.747 17.135 215.967 17.135ZM215.967 15.935C216.457 15.935 216.917 15.82 217.347 15.59C217.777 15.36 218.122 15.015 218.382 14.555C218.652 14.095 218.787 13.535 218.787 12.875C218.787 12.215 218.657 11.655 218.397 11.195C218.137 10.735 217.797 10.395 217.377 10.175C216.957 9.945 216.502 9.83 216.012 9.83C215.512 9.83 215.052 9.945 214.632 10.175C214.222 10.395 213.892 10.735 213.642 11.195C213.392 11.655 213.267 12.215 213.267 12.875C213.267 13.545 213.387 14.11 213.627 14.57C213.877 15.03 214.207 15.375 214.617 15.605C215.027 15.825 215.477 15.935 215.967 15.935ZM226.432 8.63C227.432 8.63 228.242 8.935 228.862 9.545C229.482 10.145 229.792 11.015 229.792 12.155V17H228.442V12.35C228.442 11.53 228.237 10.905 227.827 10.475C227.417 10.035 226.857 9.815 226.147 9.815C225.427 9.815 224.852 10.04 224.422 10.49C224.002 10.94 223.792 11.595 223.792 12.455V17H222.427V8.78H223.792V9.95C224.062 9.53 224.427 9.205 224.887 8.975C225.357 8.745 225.872 8.63 226.432 8.63Z" fill="#626DE5"/>
<line x1="245" y1="11.4998" x2="375" y2="11.4998" stroke="url(#paint0_linear_167_262)"/>
<line y1="11.4998" x2="130" y2="11.4998" stroke="url(#paint1_linear_167_262)"/>
<defs>
<linearGradient id="paint0_linear_167_262" x1="245" y1="12.4998" x2="375" y2="12.4998" gradientUnits="userSpaceOnUse">
<stop stop-color="#0E213A"/>
<stop offset="1" stop-color="#265CA0"/>
</linearGradient>
<linearGradient id="paint1_linear_167_262" x1="0" y1="12.4998" x2="130" y2="12.4998" gradientUnits="userSpaceOnUse">
<stop stop-color="#0E213A"/>
<stop offset="1" stop-color="#265CA0"/>
</linearGradient>
</defs>
</svg>
