<svg width="300" height="510" viewBox="0 0 300 510" fill="none" xmlns="http://www.w3.org/2000/svg">
<path d="M56.46 369.58V398.14H90.06V411.16H56.46V440.98H94.26V454H40.5V356.56H94.26V369.58H56.46ZM146.958 414.94L171.878 454H153.818L137.158 427.82L121.478 454H104.818L129.738 416.06L104.818 376.86H122.878L139.538 403.04L155.218 376.86H171.878L146.958 414.94ZM191.901 366.64C189.008 366.64 186.581 365.66 184.621 363.7C182.661 361.74 181.681 359.313 181.681 356.42C181.681 353.527 182.661 351.1 184.621 349.14C186.581 347.18 189.008 346.2 191.901 346.2C194.701 346.2 197.081 347.18 199.041 349.14C201.001 351.1 201.981 353.527 201.981 356.42C201.981 359.313 201.001 361.74 199.041 363.7C197.081 365.66 194.701 366.64 191.901 366.64ZM199.741 376.86V454H183.781V376.86H199.741ZM239.315 389.88V432.58C239.315 435.473 239.969 437.573 241.275 438.88C242.675 440.093 245.009 440.7 248.275 440.7H258.075V454H245.475C238.289 454 232.782 452.32 228.955 448.96C225.129 445.6 223.215 440.14 223.215 432.58V389.88H214.115V376.86H223.215V357.68H239.315V376.86H258.075V389.88H239.315Z" fill="#757575"/>
<path opacity="0.5" d="M113.15 56.25C112.5 63.475 112.5 72.55 112.5 84.025V215.975C112.5 227.45 112.5 236.525 113.15 243.75H100C70.5375 243.75 55.8 243.75 46.65 234.6C37.5 225.437 37.5 210.713 37.5 181.25V118.75C37.5 89.2875 37.5 74.55 46.65 65.4C55.8 56.25 70.5375 56.25 100 56.25H113.15Z" fill="#757575"/>
<path fill-rule="evenodd" clip-rule="evenodd" d="M121.337 30.1127C112.5 37.9502 112.5 52.2877 112.5 80.9502V219.05C112.5 247.713 112.5 262.05 121.337 269.888C130.175 277.725 143.687 275.375 170.712 270.663L199.838 265.588C229.763 260.363 244.725 257.75 253.612 246.775C262.5 235.788 262.5 219.913 262.5 188.15V111.85C262.5 80.1002 262.5 64.2252 253.625 53.2377C244.725 42.2627 229.75 39.6502 199.825 34.4377L170.725 29.3502C143.7 24.6377 130.188 22.2877 121.35 30.1252M159.388 136.938C159.388 131.513 155.188 127.125 150.013 127.125C144.838 127.125 140.638 131.513 140.638 136.925V163.1C140.638 168.513 144.838 172.9 150.013 172.9C155.188 172.9 159.388 168.513 159.388 163.1V136.938Z" fill="#757575"/>
</svg>
